Montserrat-SemiBoldItalic.ufo
<glyph name="hyphen" format="2">
  <advance width="384"/>
  <unicode hex="002D"/>
  <outline>
    <contour>
      <point x="50" y="229" type="line"/>
      <point x="321" y="229" type="line"/>
      <point x="340" y="324" type="line"/>
      <point x="68" y="324" type="line"/>
    </contour>
  </outline>
</glyph>
<glyph name="slash" format="2">
  <advance width="361"/>
  <unicode hex="002F"/>
  <outline>
    <contour>
      <point x="-104" y="-100" type="line"/>
      <point x="1" y="-100" type="line"/>
      <point x="516" y="842" type="line"/>
      <point x="411" y="842" type="line"/>
    </contour>
  </outline>
</glyph>
<glyph name="one" format="2">
  <advance width="375"/>
  <unicode hex="0031"/>
  <outline>
    <contour>
      <point x="108" y="0" type="line"/>
      <point x="222" y="0" type="line"/>
      <point x="362" y="700" type="line"/>
      <point x="95" y="700" type="line"/>
      <point x="75" y="601" type="line"/>
      <point x="278" y="601" type="line"/>
      <point x="238" y="650" type="line"/>
    </contour>
  </outline>
</glyph>
<glyph name="two" format="2">
  <advance width="578"/>
  <unicode hex="0032"/>
  <outline>
    <contour>
      <point x="-17" y="0" type="line"/>
      <point x="492" y="0" type="line"/>
      <point x="512" y="99" type="line"/>
      <point x="94" y="99" type="line"/>
      <point x="119" y="54" type="line"/>
      <point x="411" y="283" type="line" smooth="yes"/>
      <point x="532" y="378"/>
      <point x="567" y="449"/>
      <point x="567" y="530" type="curve" smooth="yes"/>
      <point x="567" y="635"/>
      <point x="483" y="709"/>
      <point x="339" y="709" type="curve" smooth="yes"/>
      <point x="228" y="709"/>
      <point x="130" y="665"/>
      <point x="72" y="599" type="curve"/>
      <point x="149" y="533" type="line"/>
      <point x="195" y="582"/>
      <point x="258" y="609"/>
      <point x="323" y="609" type="curve" smooth="yes"/>
      <point x="411" y="609"/>
      <point x="452" y="572"/>
      <point x="452" y="515" type="curve" smooth="yes"/>
      <point x="452" y="461"/>
      <point x="425" y="417"/>
      <point x="334" y="345" type="curve" smooth="yes"/>
      <point x="-1" y="78" type="line"/>
    </contour>
  </outline>
</glyph>
<glyph name="question" format="2">
  <advance width="577"/>
  <unicode hex="003F"/>
  <outline>
    <contour>
      <point x="216" y="227" type="curve"/>
      <point x="331" y="227" type="line"/>
      <point x="366" y="361"/>
      <point x="563" y="365"/>
      <point x="563" y="546" type="curve" smooth="yes"/>
      <point x="563" y="646"/>
      <point x="478" y="709"/>
      <point x="344" y="709" type="curve" smooth="yes"/>
      <point x="224" y="709"/>
      <point x="129" y="668"/>
      <point x="71" y="598" type="curve"/>
      <point x="144" y="533" type="line"/>
      <point x="189" y="584"/>
      <point x="248" y="612"/>
      <point x="326" y="612" type="curve" smooth="yes"/>
      <point x="405" y="612"/>
      <point x="448" y="579"/>
      <point x="448" y="526" type="curve" smooth="yes"/>
      <point x="448" y="403"/>
      <point x="247" y="390"/>
    </contour>
    <contour>
      <point x="238" y="-6" type="curve" smooth="yes"/>
      <point x="280" y="-6"/>
      <point x="313" y="27"/>
      <point x="313" y="70" type="curve" smooth="yes"/>
      <point x="313" y="107"/>
      <point x="284" y="136"/>
      <point x="244" y="136" type="curve" smooth="yes"/>
      <point x="202" y="136"/>
      <point x="169" y="104"/>
      <point x="169" y="60" type="curve" smooth="yes"/>
      <point x="169" y="24"/>
      <point x="198" y="-6"/>
    </contour>
  </outline>
</glyph>
<glyph name="S" format="2">
  <advance width="625"/>
  <unicode hex="0053"/>
  <anchor x="268" y="0" name="bottom"/>
  <anchor x="408" y="700" name="top"/>
  <outline>
    <contour>
      <point x="269" y="-9" type="curve" smooth="yes"/>
      <point x="448" y="-9"/>
      <point x="571" y="76"/>
      <point x="571" y="213" type="curve" smooth="yes"/>
      <point x="571" y="428"/>
      <point x="213" y="360"/>
      <point x="215" y="500" type="curve" smooth="yes"/>
      <point x="216" y="567"/>
      <point x="284" y="612"/>
      <point x="394" y="612" type="curve" smooth="yes"/>
      <point x="464" y="612"/>
      <point x="532" y="593"/>
      <point x="584" y="557" type="curve"/>
      <point x="629" y="650" type="line"/>
      <point x="571" y="688"/>
      <point x="488" y="709"/>
      <point x="400" y="709" type="curve" smooth="yes"/>
      <point x="224" y="709"/>
      <point x="102" y="623"/>
      <point x="102" y="489" type="curve" smooth="yes"/>
      <point x="102" y="262"/>
      <point x="458" y="334"/>
      <point x="458" y="196" type="curve" smooth="yes"/>
      <point x="458" y="128"/>
      <point x="387" y="88"/>
      <point x="279" y="88" type="curve" smooth="yes"/>
      <point x="193" y="88"/>
      <point x="107" y="118"/>
      <point x="52" y="166" type="curve"/>
      <point x="2" y="74" type="line"/>
      <point x="56" y="27"/>
      <point x="161" y="-9"/>
    </contour>
  </outline>
</glyph>
<glyph name="bracketright" format="2">
  <advance width="341"/>
  <unicode hex="005D"/>
  <outline>
    <contour>
      <point x="151" y="-194" type="line"/>
      <point x="338" y="742" type="line"/>
      <point x="113" y="742" type="line"/>
      <point x="95" y="650" type="line"/>
      <point x="208" y="650" type="line"/>
      <point x="58" y="-102" type="line"/>
      <point x="-55" y="-102" type="line"/>
      <point x="-72" y="-194" type="line"/>
    </contour>
  </outline>
</glyph>
<glyph name="c" format="2">
  <advance width="576"/>
  <unicode hex="0063"/>
  <anchor x="276" y="0" name="bottom"/>
  <anchor x="357" y="532" name="top"/>
  <outline>
    <contour>
      <point x="293" y="-6" type="curve" smooth="yes"/>
      <point x="391" y="-6"/>
      <point x="481" y="36"/>
      <point x="531" y="107" type="curve"/>
      <point x="450" y="164" type="line"/>
      <point x="414" y="114"/>
      <point x="358" y="90"/>
      <point x="297" y="90" type="curve" smooth="yes"/>
      <point x="201" y="90"/>
      <point x="147" y="143"/>
      <point x="147" y="231" type="curve" smooth="yes"/>
      <point x="147" y="355"/>
      <point x="230" y="442"/>
      <point x="343" y="442" type="curve" smooth="yes"/>
      <point x="409" y="442"/>
      <point x="456" y="417"/>
      <point x="482" y="367" type="curve"/>
      <point x="576" y="418" type="line"/>
      <point x="533" y="498"/>
      <point x="457" y="538"/>
      <point x="352" y="538" type="curve" smooth="yes"/>
      <point x="167" y="538"/>
      <point x="36" y="405"/>
      <point x="36" y="226" type="curve" smooth="yes"/>
      <point x="36" y="86"/>
      <point x="136" y="-6"/>
    </contour>
  </outline>
</glyph>
<glyph name="f" format="2">
  <advance width="361"/>
  <unicode hex="0066"/>
  <outline>
    <contour>
      <point x="49" y="0" type="line"/>
      <point x="159" y="0" type="line"/>
      <point x="250" y="455" type="line"/>
      <point x="256" y="501" type="line"/>
      <point x="270" y="565" type="line" smooth="yes"/>
      <point x="283" y="628"/>
      <point x="314" y="658"/>
      <point x="369" y="658" type="curve" smooth="yes"/>
      <point x="397" y="658"/>
      <point x="420" y="650"/>
      <point x="438" y="635" type="curve"/>
      <point x="483" y="716" type="line"/>
      <point x="456" y="737"/>
      <point x="414" y="748"/>
      <point x="369" y="748" type="curve" smooth="yes"/>
      <point x="255" y="748"/>
      <point x="186" y="683"/>
      <point x="164" y="574" type="curve" smooth="yes"/>
    </contour>
    <contour>
      <point x="48" y="442" type="line"/>
      <point x="395" y="442" type="line"/>
      <point x="413" y="532" type="line"/>
      <point x="66" y="532" type="line"/>
    </contour>
  </outline>
</glyph>
<glyph name="m" format="2">
  <advance width="1055"/>
  <unicode hex="006D"/>
  <anchor x="477" y="0" name="bottom"/>
  <outline>
    <contour>
      <point x="792" y="538" type="curve" smooth="yes"/>
      <point x="681" y="538"/>
      <point x="593" y="489"/>
      <point x="537" y="392" type="curve"/>
      <point x="597" y="380" type="line"/>
      <point x="589" y="482"/>
      <point x="517" y="538"/>
      <point x="411" y="538" type="curve" smooth="yes"/>
      <point x="322" y="538"/>
      <point x="245" y="504"/>
      <point x="196" y="429" type="curve"/>
      <point x="215" y="380" type="line"/>
      <point x="245" y="532" type="line"/>
      <point x="140" y="532" type="line"/>
      <point x="34" y="0" type="line"/>
      <point x="144" y="0" type="line"/>
      <point x="200" y="279" type="line" smooth="yes"/>
      <point x="222" y="388"/>
      <point x="283" y="440"/>
      <point x="376" y="440" type="curve" smooth="yes"/>
      <point x="466" y="440"/>
      <point x="499" y="387"/>
      <point x="481" y="296" type="curve" smooth="yes"/>
      <point x="422" y="0" type="line"/>
      <point x="532" y="0" type="line"/>
      <point x="588" y="279" type="line" smooth="yes"/>
      <point x="610" y="388"/>
      <point x="671" y="440"/>
      <point x="764" y="440" type="curve" smooth="yes"/>
      <point x="854" y="440"/>
      <point x="887" y="387"/>
      <point x="869" y="296" type="curve" smooth="yes"/>
      <point x="810" y="0" type="line"/>
      <point x="920" y="0" type="line"/>
      <point x="979" y="295" type="line" smooth="yes"/>
      <point x="1010" y="451"/>
      <point x="933" y="538"/>
    </contour>
  </outline>
</glyph>
<glyph name="copyright" format="2">
  <advance width="798"/>
  <unicode hex="00A9"/>
  <outline>
    <contour>
      <point x="415" y="-3" type="curve" smooth="yes"/>
      <point x="614" y="-3"/>
      <point x="769" y="153"/>
      <point x="769" y="352" type="curve" smooth="yes"/>
      <point x="769" y="551"/>
      <point x="618" y="703"/>
      <point x="417" y="703" type="curve" smooth="yes"/>
      <point x="216" y="703"/>
      <point x="63" y="547"/>
      <point x="63" y="350" type="curve" smooth="yes"/>
      <point x="63" y="153"/>
      <point x="216" y="-3"/>
    </contour>
    <contour>
      <point x="415" y="47" type="curve" smooth="yes"/>
      <point x="243" y="47"/>
      <point x="115" y="180"/>
      <point x="115" y="350" type="curve" smooth="yes"/>
      <point x="115" y="520"/>
      <point x="243" y="653"/>
      <point x="417" y="653" type="curve" smooth="yes"/>
      <point x="590" y="653"/>
      <point x="717" y="523"/>
      <point x="717" y="352" type="curve" smooth="yes"/>
      <point x="717" y="181"/>
      <point x="586" y="47"/>
    </contour>
    <contour>
      <point x="426" y="145" type="curve" smooth="yes"/>
      <point x="499" y="145"/>
      <point x="559" y="178"/>
      <point x="590" y="230" type="curve"/>
      <point x="526" y="274" type="line"/>
      <point x="502" y="238"/>
      <point x="466" y="222"/>
      <point x="425" y="222" type="curve" smooth="yes"/>
      <point x="355" y="222"/>
      <point x="301" y="272"/>
      <point x="301" y="350" type="curve" smooth="yes"/>
      <point x="301" y="428"/>
      <point x="355" y="478"/>
      <point x="425" y="478" type="curve" smooth="yes"/>
      <point x="466" y="478"/>
      <point x="502" y="462"/>
      <point x="526" y="426" type="curve"/>
      <point x="590" y="472" type="line"/>
      <point x="559" y="522"/>
      <point x="499" y="555"/>
      <point x="426" y="555" type="curve" smooth="yes"/>
      <point x="303" y="555"/>
      <point x="215" y="470"/>
      <point x="215" y="350" type="curve" smooth="yes"/>
      <point x="215" y="230"/>
      <point x="303" y="145"/>
    </contour>
  </outline>
</glyph>
<glyph name="degree" format="2">
  <advance width="418"/>
  <unicode hex="00B0"/>
  <outline>
    <contour>
      <point x="265" y="377" type="curve" smooth="yes"/>
      <point x="359" y="377"/>
      <point x="432" y="450"/>
      <point x="432" y="542" type="curve" smooth="yes"/>
      <point x="432" y="634"/>
      <point x="359" y="707"/>
      <point x="265" y="707" type="curve" smooth="yes"/>
      <point x="171" y="707"/>
      <point x="98" y="634"/>
      <point x="98" y="542" type="curve" smooth="yes"/>
      <point x="98" y="450"/>
      <point x="171" y="377"/>
    </contour>
    <contour>
      <point x="265" y="437" type="curve" smooth="yes"/>
      <point x="206" y="437"/>
      <point x="161" y="481"/>
      <point x="161" y="542" type="curve" smooth="yes"/>
      <point x="161" y="603"/>
      <point x="206" y="647"/>
      <point x="265" y="647" type="curve" smooth="yes"/>
      <point x="324" y="647"/>
      <point x="369" y="602"/>
      <point x="369" y="542" type="curve" smooth="yes"/>
      <point x="369" y="482"/>
      <point x="324" y="437"/>
    </contour>
  </outline>
</glyph>
<glyph name="AE" format="2">
  <advance width="1055"/>
  <unicode hex="00C6"/>
  <anchor x="490" y="0" name="bottom"/>
  <anchor x="630" y="700" name="top"/>
  <outline>
    <contour>
      <point x="-57" y="0" type="line"/>
      <point x="71" y="0" type="line"/>
      <point x="575" y="652" type="line"/>
      <point x="494" y="604" type="line"/>
      <point x="594" y="604" type="line"/>
      <point x="611" y="700" type="line"/>
      <point x="490" y="700" type="line"/>
    </contour>
    <contour>
      <point x="165" y="168" type="line"/>
      <point x="506" y="168" type="line"/>
      <point x="523" y="260" type="line"/>
      <point x="188" y="260" type="line"/>
    </contour>
    <contour>
      <point x="433" y="0" type="line"/>
      <point x="948" y="0" type="line"/>
      <point x="968" y="99" type="line"/>
      <point x="566" y="99" type="line"/>
      <point x="666" y="601" type="line"/>
      <point x="1054" y="601" type="line"/>
      <point x="1074" y="700" type="line"/>
      <point x="573" y="700" type="line"/>
    </contour>
    <contour>
      <point x="597" y="307" type="line"/>
      <point x="952" y="307" type="line"/>
      <point x="972" y="404" type="line"/>
      <point x="618" y="404" type="line"/>
    </contour>
  </outline>
</glyph>
<glyph name="oe" format="2">
  <advance width="1065"/>
  <unicode hex="0153"/>
  <anchor x="487" y="0" name="bottom"/>
  <anchor x="592" y="531" name="top"/>
  <outline>
    <contour>
      <point x="282" y="-6" type="curve" smooth="yes"/>
      <point x="459" y="-6"/>
      <point x="586" y="127"/>
      <point x="586" y="306" type="curve" smooth="yes"/>
      <point x="586" y="447"/>
      <point x="489" y="538"/>
      <point x="340" y="538" type="curve" smooth="yes"/>
      <point x="163" y="538"/>
      <point x="36" y="405"/>
      <point x="36" y="226" type="curve" smooth="yes"/>
      <point x="36" y="86"/>
      <point x="136" y="-6"/>
    </contour>
    <contour>
      <point x="297" y="90" type="curve" smooth="yes"/>
      <point x="201" y="90"/>
      <point x="147" y="143"/>
      <point x="147" y="231" type="curve" smooth="yes"/>
      <point x="147" y="355"/>
      <point x="230" y="442"/>
      <point x="343" y="442" type="curve" smooth="yes"/>
      <point x="439" y="442"/>
      <point x="493" y="389"/>
      <point x="493" y="301" type="curve" smooth="yes"/>
      <point x="493" y="177"/>
      <point x="410" y="90"/>
    </contour>
    <contour>
      <point x="744" y="-6" type="curve" smooth="yes"/>
      <point x="825" y="-6"/>
      <point x="906" y="19"/>
      <point x="960" y="68" type="curve"/>
      <point x="914" y="148" type="line"/>
      <point x="876" y="112"/>
      <point x="818" y="90"/>
      <point x="754" y="90" type="curve" smooth="yes"/>
      <point x="644" y="90"/>
      <point x="594" y="141"/>
      <point x="594" y="232" type="curve" smooth="yes"/>
      <point x="594" y="361"/>
      <point x="669" y="446"/>
      <point x="784" y="446" type="curve" smooth="yes"/>
      <point x="881" y="446"/>
      <point x="942" y="388"/>
      <point x="926" y="283" type="curve"/>
      <point x="971" y="310" type="line"/>
      <point x="579" y="310" type="line"/>
      <point x="566" y="231" type="line"/>
      <point x="1023" y="231" type="line"/>
      <point x="1028" y="254"/>
      <point x="1031" y="279"/>
      <point x="1031" y="305" type="curve" smooth="yes"/>
      <point x="1031" y="451"/>
      <point x="934" y="538"/>
      <point x="789" y="538" type="curve" smooth="yes"/>
      <point x="621" y="538"/>
      <point x="493" y="407"/>
      <point x="493" y="226" type="curve" smooth="yes"/>
      <point x="493" y="86"/>
      <point x="589" y="-6"/>
    </contour>
  </outline>
</glyph>
<glyph name="verticallinemod" format="2">
  <advance width="176"/>
  <unicode hex="02C8"/>
  <outline>
    <contour>
      <point x="99" y="508" type="line"/>
      <point x="174" y="508" type="line"/>
      <point x="212" y="700" type="line"/>
      <point x="137" y="700" type="line"/>
    </contour>
  </outline>
</glyph>
<glyph name="secondtonechinese" format="2">
  <advance width="600"/>
  <unicode hex="02CA"/>
  <anchor x="353" y="532" name="_top"/>
  <anchor x="388" y="709" name="top"/>
  <outline>
    <contour>
      <point x="285" y="607" type="line"/>
      <point x="391" y="607" type="line"/>
      <point x="576" y="741" type="line"/>
      <point x="436" y="741" type="line"/>
    </contour>
  </outline>
</glyph>
<glyph name="commaturnedabovecomb" format="2">
  <unicode hex="0312"/>
  <anchor x="353" y="532" name="_top"/>
  <anchor x="395" y="743" name="top"/>
  <outline>
    <contour>
      <point x="374" y="601" type="curve" smooth="yes"/>
      <point x="416" y="601"/>
      <point x="439" y="625"/>
      <point x="439" y="656" type="curve" smooth="yes"/>
      <point x="439" y="682"/>
      <point x="418" y="699"/>
      <point x="382" y="699" type="curve"/>
      <point x="391" y="658" type="line"/>
      <point x="461" y="797" type="line"/>
      <point x="400" y="797" type="line"/>
      <point x="341" y="704" type="line" smooth="yes"/>
      <point x="321" y="677"/>
      <point x="315" y="664"/>
      <point x="315" y="646" type="curve" smooth="yes"/>
      <point x="315" y="621"/>
      <point x="336" y="601"/>
    </contour>
  </outline>
</glyph>
<glyph name="E-cy" format="2">
  <advance width="711"/>
  <unicode hex="0404"/>
  <outline>
    <contour>
      <point x="522" y="391" type="line"/>
      <point x="154" y="391" type="line"/>
      <point x="136" y="298" type="line"/>
      <point x="504" y="298" type="line"/>
    </contour>
    <contour>
      <point x="352" y="-9" type="curve" smooth="yes"/>
      <point x="467" y="-9"/>
      <point x="573" y="30"/>
      <point x="652" y="105" type="curve"/>
      <point x="594" y="177" type="line"/>
      <point x="529" y="120"/>
      <point x="457" y="94"/>
      <point x="379" y="94" type="curve" smooth="yes"/>
      <point x="256" y="94"/>
      <point x="179" y="180"/>
      <point x="179" y="302" type="curve" smooth="yes"/>
      <point x="179" y="473"/>
      <point x="318" y="606"/>
      <point x="481" y="606" type="curve" smooth="yes"/>
      <point x="559" y="606"/>
      <point x="621" y="580"/>
      <point x="664" y="523" type="curve"/>
      <point x="750" y="595" type="line"/>
      <point x="701" y="670"/>
      <point x="611" y="709"/>
      <point x="496" y="709" type="curve" smooth="yes"/>
      <point x="263" y="709"/>
      <point x="61" y="523"/>
      <point x="61" y="285" type="curve" smooth="yes"/>
      <point x="61" y="114"/>
      <point x="175" y="-9"/>
    </contour>
  </outline>
</glyph>
<glyph name="Tshe-cy" format="2">
  <advance width="844"/>
  <unicode hex="040B"/>
  <outline>
    <contour>
      <point x="196" y="0" type="line"/>
      <point x="309" y="0" type="line"/>
      <point x="433" y="630" type="line"/>
      <point x="400" y="601" type="line"/>
      <point x="685" y="601" type="line"/>
      <point x="705" y="700" type="line"/>
      <point x="101" y="700" type="line"/>
      <point x="81" y="601" type="line"/>
      <point x="342" y="601" type="line"/>
      <point x="320" y="630" type="line"/>
    </contour>
    <contour>
      <point x="363" y="381" type="curve"/>
      <point x="351" y="271" type="line"/>
      <point x="426" y="303"/>
      <point x="490" y="321"/>
      <point x="548" y="321" type="curve" smooth="yes"/>
      <point x="641" y="321"/>
      <point x="689" y="274"/>
      <point x="669" y="174" type="curve" smooth="yes"/>
      <point x="634" y="0" type="line"/>
      <point x="747" y="0" type="line"/>
      <point x="783" y="181" type="line" smooth="yes"/>
      <point x="815" y="342"/>
      <point x="730" y="423"/>
      <point x="577" y="423" type="curve" smooth="yes"/>
      <point x="517" y="423"/>
      <point x="446" y="411"/>
    </contour>
  </outline>
</glyph>
<glyph name="Be-cy" format="2">
  <advance width="736"/>
  <unicode hex="0411"/>
  <outline>
    <contour>
      <point x="51" y="0" type="line"/>
      <point x="358" y="0" type="line" smooth="yes"/>
      <point x="560" y="0"/>
      <point x="681" y="89"/>
      <point x="681" y="237" type="curve" smooth="yes"/>
      <point x="681" y="355"/>
      <point x="604" y="418"/>
      <point x="461" y="418" type="curve" smooth="yes"/>
      <point x="248" y="418" type="line"/>
      <point x="284" y="603" type="line"/>
      <point x="707" y="603" type="line"/>
      <point x="727" y="700" type="line"/>
      <point x="191" y="700" type="line"/>
    </contour>
    <contour>
      <point x="182" y="90" type="line"/>
      <point x="230" y="328" type="line"/>
      <point x="419" y="328" type="line" smooth="yes"/>
      <point x="518" y="328"/>
      <point x="563" y="297"/>
      <point x="563" y="229" type="curve" smooth="yes"/>
      <point x="563" y="142"/>
      <point x="491" y="90"/>
      <point x="371" y="90" type="curve" smooth="yes"/>
    </contour>
  </outline>
</glyph>
<glyph name="Zhe-cy" format="2">
  <advance width="1039"/>
  <unicode hex="0416"/>
  <anchor x="838" y="0" name="bottomleft"/>
  <anchor x="968" y="0" name="bottomright"/>
  <anchor x="609" y="700" name="top"/>
  <outline>
    <contour>
      <point x="838" y="0" type="line"/>
      <point x="968" y="0" type="line"/>
      <point x="799" y="401" type="line"/>
      <point x="694" y="343" type="line"/>
    </contour>
    <contour>
      <point x="550" y="301" type="line"/>
      <point x="758" y="301" type="line"/>
      <point x="778" y="402" type="line"/>
      <point x="570" y="402" type="line"/>
    </contour>
    <contour>
      <point x="797" y="337" type="line"/>
      <point x="1095" y="700" type="line"/>
      <point x="970" y="700" type="line"/>
      <point x="691" y="352" type="line"/>
    </contour>
    <contour>
      <point x="99" y="0" type="line"/>
      <point x="379" y="343" type="line"/>
      <point x="291" y="401" type="line"/>
      <point x="-37" y="0" type="line"/>
    </contour>
    <contour>
      <point x="524" y="0" type="line"/>
      <point x="664" y="700" type="line"/>
      <point x="552" y="700" type="line"/>
      <point x="412" y="0" type="line"/>
    </contour>
    <contour>
      <point x="506" y="301" type="line"/>
      <point x="526" y="402" type="line"/>
      <point x="317" y="402" type="line"/>
      <point x="297" y="301" type="line"/>
    </contour>
    <contour>
      <point x="277" y="337" type="line"/>
      <point x="381" y="352" type="line"/>
      <point x="241" y="700" type="line"/>
      <point x="122" y="700" type="line"/>
    </contour>
  </outline>
</glyph>
<glyph name="Softsign-cy" format="2">
  <advance width="719"/>
  <unicode hex="042C"/>
  <anchor x="51" y="0" name="#entry"/>
  <anchor x="240" y="585" name="center"/>
  <outline>
    <contour>
      <point x="447" y="460" type="curve" smooth="yes"/>
      <point x="256" y="460" type="line"/>
      <point x="304" y="700" type="line"/>
      <point x="191" y="700" type="line"/>
      <point x="51" y="0" type="line"/>
      <point x="346" y="0" type="line" smooth="yes"/>
      <point x="548" y="0"/>
      <point x="679" y="107"/>
      <point x="679" y="271" type="curve" smooth="yes"/>
      <point x="679" y="397"/>
      <point x="602" y="460"/>
    </contour>
    <contour>
      <point x="359" y="90" type="curve" smooth="yes"/>
      <point x="182" y="90" type="line"/>
      <point x="238" y="370" type="line"/>
      <point x="420" y="370" type="line" smooth="yes"/>
      <point x="518" y="370"/>
      <point x="561" y="336"/>
      <point x="561" y="259" type="curve" smooth="yes"/>
      <point x="561" y="155"/>
      <point x="483" y="90"/>
    </contour>
  </outline>
</glyph>
<glyph name="Ereversed-cy" format="2">
  <advance width="710"/>
  <unicode hex="042D"/>
  <anchor x="408" y="700" name="top"/>
  <outline>
    <contour>
      <point x="222" y="309" type="line"/>
      <point x="590" y="309" type="line"/>
      <point x="608" y="402" type="line"/>
      <point x="240" y="402" type="line"/>
    </contour>
    <contour>
      <point x="392" y="709" type="curve" smooth="yes"/>
      <point x="277" y="709"/>
      <point x="171" y="670"/>
      <point x="92" y="595" type="curve"/>
      <point x="150" y="523" type="line"/>
      <point x="215" y="580"/>
      <point x="287" y="606"/>
      <point x="365" y="606" type="curve" smooth="yes"/>
      <point x="488" y="606"/>
      <point x="565" y="520"/>
      <point x="565" y="398" type="curve" smooth="yes"/>
      <point x="565" y="227"/>
      <point x="426" y="94"/>
      <point x="263" y="94" type="curve" smooth="yes"/>
      <point x="185" y="94"/>
      <point x="123" y="120"/>
      <point x="80" y="177" type="curve"/>
      <point x="-6" y="105" type="line"/>
      <point x="43" y="30"/>
      <point x="133" y="-9"/>
      <point x="248" y="-9" type="curve" smooth="yes"/>
      <point x="481" y="-9"/>
      <point x="683" y="177"/>
      <point x="683" y="415" type="curve" smooth="yes"/>
      <point x="683" y="586"/>
      <point x="569" y="709"/>
    </contour>
  </outline>
</glyph>
<glyph name="be-cy" format="2">
  <advance width="668"/>
  <unicode hex="0431"/>
  <outline>
    <contour>
      <point x="307" y="-9" type="curve" smooth="yes"/>
      <point x="495" y="-9"/>
      <point x="628" y="117"/>
      <point x="628" y="283" type="curve" smooth="yes"/>
      <point x="628" y="413"/>
      <point x="546" y="490"/>
      <point x="411" y="490" type="curve" smooth="yes"/>
      <point x="298" y="490"/>
      <point x="205" y="437"/>
      <point x="141" y="334" type="curve"/>
      <point x="170" y="307" type="line"/>
      <point x="192" y="480"/>
      <point x="284" y="588"/>
      <point x="441" y="619" type="curve" smooth="yes"/>
      <point x="671" y="664" type="line"/>
      <point x="671" y="757" type="line"/>
      <point x="416" y="707" type="line" smooth="yes"/>
      <point x="202" y="665"/>
      <point x="60" y="475"/>
      <point x="60" y="254" type="curve" smooth="yes"/>
      <point x="60" y="79"/>
      <point x="151" y="-9"/>
    </contour>
    <contour>
      <point x="315" y="76" type="curve" smooth="yes"/>
      <point x="224" y="76"/>
      <point x="169" y="132"/>
      <point x="169" y="212" type="curve" smooth="yes"/>
      <point x="169" y="316"/>
      <point x="263" y="393"/>
      <point x="372" y="393" type="curve" smooth="yes"/>
      <point x="457" y="393"/>
      <point x="509" y="347"/>
      <point x="509" y="264" type="curve" smooth="yes"/>
      <point x="509" y="158"/>
      <point x="425" y="76"/>
    </contour>
  </outline>
</glyph>
<glyph name="ve-cy" format="2">
  <advance width="618"/>
  <unicode hex="0432"/>
  <anchor x="263" y="0" name="bottom"/>
  <anchor x="369" y="532" name="top"/>
  <outline>
    <contour>
      <point x="36" y="0" type="line"/>
      <point x="305" y="0" type="line" smooth="yes"/>
      <point x="454" y="0"/>
      <point x="543" y="62"/>
      <point x="543" y="166" type="curve" smooth="yes"/>
      <point x="543" y="247"/>
      <point x="489" y="286"/>
      <point x="376" y="286" type="curve"/>
      <point x="363" y="259" type="line"/>
      <point x="490" y="259"/>
      <point x="574" y="319"/>
      <point x="574" y="409" type="curve" smooth="yes"/>
      <point x="574" y="489"/>
      <point x="510" y="532"/>
      <point x="393" y="532" type="curve" smooth="yes"/>
      <point x="143" y="532" type="line"/>
    </contour>
    <contour>
      <point x="161" y="84" type="line"/>
      <point x="190" y="229" type="line"/>
      <point x="346" y="229" type="line" smooth="yes"/>
      <point x="408" y="229"/>
      <point x="436" y="211"/>
      <point x="436" y="170" type="curve" smooth="yes"/>
      <point x="436" y="116"/>
      <point x="388" y="84"/>
      <point x="308" y="84" type="curve" smooth="yes"/>
    </contour>
    <contour>
      <point x="205" y="308" type="line"/>
      <point x="233" y="448" type="line"/>
      <point x="371" y="448" type="line" smooth="yes"/>
      <point x="431" y="448"/>
      <point x="461" y="429"/>
      <point x="461" y="389" type="curve" smooth="yes"/>
      <point x="461" y="340"/>
      <point x="413" y="308"/>
      <point x="342" y="308" type="curve" smooth="yes"/>
    </contour>
  </outline>
</glyph>
<glyph name="ze-cy" format="2">
  <advance width="537"/>
  <unicode hex="0437"/>
  <anchor x="203" y="0" name="bottom"/>
  <anchor x="291" y="531" name="top"/>
  <outline>
    <contour>
      <point x="200" y="-8" type="curve" smooth="yes"/>
      <point x="356" y="-8"/>
      <point x="470" y="65"/>
      <point x="470" y="163" type="curve" smooth="yes"/>
      <point x="470" y="232"/>
      <point x="414" y="276"/>
      <point x="322" y="285" type="curve"/>
      <point x="325" y="264" type="line"/>
      <point x="425" y="274"/>
      <point x="492" y="329"/>
      <point x="492" y="402" type="curve" smooth="yes"/>
      <point x="492" y="486"/>
      <point x="406" y="540"/>
      <point x="282" y="540" type="curve" smooth="yes"/>
      <point x="216" y="540"/>
      <point x="148" y="525"/>
      <point x="81" y="495" type="curve"/>
      <point x="107" y="404" type="line"/>
      <point x="170" y="431"/>
      <point x="219" y="445"/>
      <point x="272" y="445" type="curve" smooth="yes"/>
      <point x="341" y="445"/>
      <point x="378" y="422"/>
      <point x="378" y="383" type="curve" smooth="yes"/>
      <point x="378" y="340"/>
      <point x="330" y="313"/>
      <point x="255" y="313" type="curve" smooth="yes"/>
      <point x="171" y="313" type="line"/>
      <point x="159" y="234" type="line"/>
      <point x="259" y="234" type="line" smooth="yes"/>
      <point x="323" y="234"/>
      <point x="359" y="212"/>
      <point x="359" y="172" type="curve" smooth="yes"/>
      <point x="359" y="121"/>
      <point x="297" y="86"/>
      <point x="204" y="86" type="curve" smooth="yes"/>
      <point x="136" y="86"/>
      <point x="72" y="101"/>
      <point x="30" y="131" type="curve"/>
      <point x="-11" y="53" type="line"/>
      <point x="48" y="13"/>
      <point x="119" y="-8"/>
    </contour>
  </outline>
</glyph>
<glyph name="el-cy" format="2">
  <advance width="647"/>
  <unicode hex="043B"/>
  <anchor x="394" y="0" name="#exit"/>
  <anchor x="394" y="0" name="bottomleft"/>
  <outline>
    <contour>
      <point x="-48" y="1" type="line"/>
      <point x="-24" y="-5"/>
      <point x="-5" y="-9"/>
      <point x="18" y="-9" type="curve" smooth="yes"/>
      <point x="134" y="-9"/>
      <point x="187" y="115"/>
      <point x="239" y="325" type="curve" smooth="yes"/>
      <point x="275" y="471" type="line"/>
      <point x="245" y="437" type="line"/>
      <point x="509" y="437" type="line"/>
      <point x="488" y="470" type="line"/>
      <point x="394" y="0" type="line"/>
      <point x="504" y="0" type="line"/>
      <point x="611" y="532" type="line"/>
      <point x="192" y="532" type="line"/>
      <point x="143" y="333" type="line" smooth="yes"/>
      <point x="109" y="196"/>
      <point x="75" y="91"/>
      <point x="1" y="91" type="curve" smooth="yes"/>
      <point x="-6" y="91"/>
      <point x="-14" y="92"/>
      <point x="-23" y="94" type="curve"/>
    </contour>
  </outline>
</glyph>
<glyph name="hardsign-cy" format="2">
  <advance width="659"/>
  <unicode hex="044A"/>
  <outline>
    <contour>
      <point x="244" y="436" type="line"/>
      <point x="329" y="532" type="line"/>
      <point x="59" y="532" type="line"/>
      <point x="40" y="436" type="line"/>
    </contour>
    <contour>
      <point x="433" y="356" type="curve" smooth="yes"/>
      <point x="295" y="356" type="line"/>
      <point x="329" y="532" type="line"/>
      <point x="220" y="532" type="line"/>
      <point x="114" y="0" type="line"/>
      <point x="360" y="0" type="line" smooth="yes"/>
      <point x="515" y="0"/>
      <point x="616" y="82"/>
      <point x="616" y="208" type="curve" smooth="yes"/>
      <point x="616" y="306"/>
      <point x="554" y="356"/>
    </contour>
    <contour>
      <point x="360" y="82" type="curve" smooth="yes"/>
      <point x="241" y="82" type="line"/>
      <point x="279" y="275" type="line"/>
      <point x="400" y="275" type="line" smooth="yes"/>
      <point x="472" y="275"/>
      <point x="506" y="250"/>
      <point x="506" y="198" type="curve" smooth="yes"/>
      <point x="506" y="128"/>
      <point x="447" y="82"/>
    </contour>
  </outline>
</glyph>
<glyph name="dje-cy" format="2">
  <advance width="672"/>
  <unicode hex="0452"/>
  <anchor x="291" y="0" name="bottom"/>
  <anchor x="275" y="635" name="center"/>
  <anchor x="238" y="742" name="top"/>
  <anchor x="317" y="532" name="topright"/>
  <outline>
    <contour>
      <point x="331" y="-200" type="curve" smooth="yes"/>
      <point x="446" y="-200"/>
      <point x="525" y="-129"/>
      <point x="546" y="-16" type="curve" smooth="yes"/>
      <point x="608" y="295" type="line" smooth="yes"/>
      <point x="639" y="451"/>
      <point x="559" y="538"/>
      <point x="420" y="538" type="curve" smooth="yes"/>
      <point x="350" y="538"/>
      <point x="289" y="519"/>
      <point x="240" y="478" type="curve"/>
      <point x="293" y="742" type="line"/>
      <point x="183" y="742" type="line"/>
      <point x="35" y="0" type="line"/>
      <point x="145" y="0" type="line"/>
      <point x="201" y="279" type="line" smooth="yes"/>
      <point x="223" y="388"/>
      <point x="290" y="440"/>
      <point x="387" y="440" type="curve" smooth="yes"/>
      <point x="481" y="440"/>
      <point x="516" y="387"/>
      <point x="498" y="296" type="curve" smooth="yes"/>
      <point x="435" y="-19" type="line" smooth="yes"/>
      <point x="423" y="-77"/>
      <point x="390" y="-108"/>
      <point x="342" y="-108" type="curve" smooth="yes"/>
      <point x="312" y="-108"/>
      <point x="287" y="-100"/>
      <point x="271" y="-85" type="curve"/>
      <point x="220" y="-169" type="line"/>
      <point x="244" y="-191"/>
      <point x="286" y="-200"/>
    </contour>
    <contour>
      <point x="54" y="597" type="line"/>
      <point x="494" y="597" type="line"/>
      <point x="510" y="674" type="line"/>
      <point x="70" y="674" type="line"/>
    </contour>
  </outline>
</glyph>
<glyph name="dzhe-cy" format="2">
  <advance width="649"/>
  <unicode hex="045F"/>
  <outline>
    <contour>
      <point x="613" y="532" type="line"/>
      <point x="503" y="532" type="line"/>
      <point x="416" y="96" type="line"/>
      <point x="165" y="96" type="line"/>
      <point x="252" y="532" type="line"/>
      <point x="142" y="532" type="line"/>
      <point x="36" y="0" type="line"/>
      <point x="220" y="0" type="line"/>
      <point x="195" y="-121" type="line"/>
      <point x="299" y="-121" type="line"/>
      <point x="324" y="0" type="line"/>
      <point x="507" y="0" type="line"/>
    </contour>
  </outline>
</glyph>
<glyph name="Ertick-cy" format="2">
  <advance width="732"/>
  <unicode hex="048E"/>
  <outline>
    <contour>
      <point x="637" y="129" type="line"/>
      <point x="440" y="473" type="line"/>
      <point x="372" y="423" type="line"/>
      <point x="567" y="79" type="line"/>
    </contour>
    <component base="P" xOffset="4"/>
  </outline>
</glyph>
<glyph name="ertick-cy" format="2">
  <advance width="699"/>
  <unicode hex="048F"/>
  <anchor x="337" y="0" name="bottom"/>
  <anchor x="420" y="532" name="top"/>
  <outline>
    <contour>
      <point x="583" y="-16" type="line"/>
      <point x="431" y="242" type="line"/>
      <point x="358" y="193" type="line"/>
      <point x="513" y="-63" type="line"/>
    </contour>
    <component base="p" xOffset="2"/>
  </outline>
</glyph>
<glyph name="kaverticalstroke-cy" format="2">
  <advance width="612"/>
  <unicode hex="049D"/>
  <outline>
    <contour>
      <point x="158" y="221" type="line"/>
      <point x="375" y="221" type="line"/>
      <point x="393" y="312" type="line"/>
      <point x="175" y="312" type="line"/>
    </contour>
    <contour>
      <point x="419" y="0" type="line"/>
      <point x="547" y="0" type="line"/>
      <point x="408" y="301" type="line"/>
      <point x="317" y="259" type="line"/>
    </contour>
    <contour>
      <point x="36" y="0" type="line"/>
      <point x="146" y="0" type="line"/>
      <point x="252" y="532" type="line"/>
      <point x="143" y="532" type="line"/>
    </contour>
    <contour>
      <point x="210" y="125" type="line"/>
      <point x="290" y="125" type="line"/>
      <point x="346" y="407" type="line"/>
      <point x="266" y="407" type="line"/>
    </contour>
    <contour>
      <point x="412" y="253" type="line"/>
      <point x="644" y="532" type="line"/>
      <point x="522" y="532" type="line"/>
      <point x="307" y="267" type="line"/>
    </contour>
  </outline>
</glyph>
<glyph name="Kastroke-cy" format="2">
  <advance width="755"/>
  <unicode hex="049E"/>
  <anchor x="564" y="0" name="bottomleft"/>
  <anchor x="687" y="0" name="bottomright"/>
  <anchor x="489" y="700" name="top"/>
  <outline>
    <contour>
      <point x="73" y="535" type="line"/>
      <point x="438" y="535" type="line"/>
      <point x="454" y="615" type="line"/>
      <point x="89" y="615" type="line"/>
    </contour>
    <component base="Ka-cy" xOffset="38"/>
  </outline>
</glyph>
<glyph name="tetse-cy" format="2">
  <advance width="778"/>
  <unicode hex="04B5"/>
  <outline>
    <contour>
      <point x="145" y="0" type="line"/>
      <point x="617" y="0" type="line"/>
      <point x="723" y="532" type="line"/>
      <point x="613" y="532" type="line"/>
      <point x="526" y="96" type="line"/>
      <point x="274" y="96" type="line"/>
      <point x="361" y="532" type="line"/>
      <point x="251" y="532" type="line"/>
    </contour>
    <contour>
      <point x="567" y="-111" type="line"/>
      <point x="670" y="-111" type="line"/>
      <point x="711" y="96" type="line"/>
      <point x="526" y="96" type="line"/>
      <point x="507" y="0" type="line"/>
      <point x="614" y="0" type="line"/>
      <point x="594" y="28" type="line"/>
    </contour>
    <contour>
      <point x="508" y="532" type="line"/>
      <point x="60" y="532" type="line"/>
      <point x="41" y="436" type="line"/>
      <point x="489" y="436" type="line"/>
    </contour>
  </outline>
</glyph>
<glyph name="Cheverticalstroke-cy" format="2">
  <advance width="739"/>
  <unicode hex="04B8"/>
  <anchor x="469" y="0" name="bottomleft"/>
  <anchor x="666" y="0" name="bottomright"/>
  <anchor x="430" y="700" name="top"/>
  <outline>
    <contour>
      <point x="256" y="96" type="line"/>
      <point x="341" y="96" type="line"/>
      <point x="415" y="467" type="line"/>
      <point x="330" y="467" type="line"/>
    </contour>
    <component base="Che-cy"/>
  </outline>
</glyph>
<glyph name="cheverticalstroke-cy" format="2">
  <advance width="614"/>
  <unicode hex="04B9"/>
  <anchor x="362" y="0" name="bottomleft"/>
  <anchor x="540" y="0" name="bottomright"/>
  <anchor x="332" y="532" name="top"/>
  <outline>
    <contour>
      <point x="210" y="75" type="line"/>
      <point x="290" y="75" type="line"/>
      <point x="348" y="363" type="line"/>
      <point x="268" y="363" type="line"/>
    </contour>
    <component base="che-cy"/>
  </outline>
</glyph>
<glyph name="kahook-cy" format="2">
  <advance width="606"/>
  <unicode hex="04C4"/>
  <outline>
    <contour>
      <point x="319" y="-201" type="curve" smooth="yes"/>
      <point x="440" y="-201"/>
      <point x="528" y="-119"/>
      <point x="528" y="2" type="curve" smooth="yes"/>
      <point x="528" y="94"/>
      <point x="465" y="204"/>
      <point x="353" y="305" type="curve"/>
      <point x="264" y="256" type="line"/>
      <point x="358" y="172"/>
      <point x="417" y="69"/>
      <point x="417" y="-6" type="curve" smooth="yes"/>
      <point x="417" y="-70"/>
      <point x="375" y="-109"/>
      <point x="320" y="-109" type="curve" smooth="yes"/>
      <point x="297" y="-109"/>
      <point x="275" y="-102"/>
      <point x="253" y="-90" type="curve"/>
      <point x="207" y="-172" type="line"/>
      <point x="242" y="-191"/>
      <point x="280" y="-201"/>
    </contour>
    <contour>
      <point x="36" y="0" type="line"/>
      <point x="146" y="0" type="line"/>
      <point x="252" y="532" type="line"/>
      <point x="142" y="532" type="line"/>
    </contour>
    <contour>
      <point x="158" y="224" type="line"/>
      <point x="335" y="224" type="line"/>
      <point x="352" y="309" type="line"/>
      <point x="174" y="309" type="line"/>
    </contour>
    <contour>
      <point x="371" y="253" type="line"/>
      <point x="642" y="532" type="line"/>
      <point x="520" y="532" type="line"/>
      <point x="265" y="267" type="line"/>
    </contour>
  </outline>
</glyph>
<glyph name="palochka-cy" format="2">
  <advance width="287"/>
  <unicode hex="04CF"/>
  <anchor x="90" y="0" name="bottom"/>
  <anchor x="162" y="360" name="center"/>
  <anchor x="344" y="360" name="dot"/>
  <anchor x="238" y="742" name="top"/>
  <anchor x="380" y="742" name="topright"/>
  <outline>
    <contour>
      <point x="35" y="0" type="line"/>
      <point x="145" y="0" type="line"/>
      <point x="293" y="742" type="line"/>
      <point x="183" y="742" type="line"/>
    </contour>
  </outline>
</glyph>
<glyph name="Hahook-cy" format="2">
  <advance width="678"/>
  <unicode hex="04FC"/>
  <outline>
    <contour>
      <point x="-39" y="0" type="line"/>
      <point x="98" y="0" type="line"/>
      <point x="744" y="700" type="line"/>
      <point x="613" y="700" type="line"/>
      <point x="376" y="444" type="line"/>
      <point x="237" y="700" type="line"/>
      <point x="116" y="700" type="line"/>
      <point x="300" y="364" type="line"/>
    </contour>
    <contour>
      <point x="385" y="-203" type="curve" smooth="yes"/>
      <point x="506" y="-203"/>
      <point x="597" y="-120"/>
      <point x="597" y="-8" type="curve" smooth="yes"/>
      <point x="597" y="69"/>
      <point x="564" y="139"/>
      <point x="417" y="382" type="curve"/>
      <point x="328" y="300" type="line"/>
      <point x="434" y="132"/>
      <point x="473" y="48"/>
      <point x="473" y="-13" type="curve" smooth="yes"/>
      <point x="473" y="-72"/>
      <point x="435" y="-112"/>
      <point x="380" y="-112" type="curve" smooth="yes"/>
      <point x="357" y="-112"/>
      <point x="335" y="-106"/>
      <point x="315" y="-93" type="curve"/>
      <point x="271" y="-173" type="line"/>
      <point x="306" y="-193"/>
      <point x="345" y="-203"/>
    </contour>
  </outline>
</glyph>
<glyph name="enlefthook-cy" format="2">
  <advance width="685"/>
  <unicode hex="0529"/>
  <outline>
    <contour>
      <point x="539" y="532" type="line"/>
      <point x="495" y="314" type="line"/>
      <point x="209" y="314" type="line"/>
      <point x="253" y="532" type="line"/>
      <point x="143" y="532" type="line"/>
      <point x="33" y="-19" type="line" smooth="yes"/>
      <point x="21" y="-78"/>
      <point x="-14" y="-108"/>
      <point x="-63" y="-108" type="curve" smooth="yes"/>
      <point x="-91" y="-108"/>
      <point x="-114" y="-100"/>
      <point x="-130" y="-85" type="curve"/>
      <point x="-179" y="-168" type="line"/>
      <point x="-154" y="-190"/>
      <point x="-111" y="-200"/>
      <point x="-65" y="-200" type="curve" smooth="yes"/>
      <point x="45" y="-200"/>
      <point x="120" y="-130"/>
      <point x="142" y="-22" type="curve" smooth="yes"/>
      <point x="190" y="218" type="line"/>
      <point x="476" y="218" type="line"/>
      <point x="433" y="0" type="line"/>
      <point x="543" y="0" type="line"/>
      <point x="649" y="532" type="line"/>
    </contour>
  </outline>
</glyph>
<glyph name="Eldescender-cy" format="2">
  <advance width="815"/>
  <unicode hex="052E"/>
  <anchor x="522" y="0" name="#exit"/>
  <anchor x="522" y="0" name="bottomleft"/>
  <outline>
    <contour>
      <point x="28" y="-9" type="curve" smooth="yes"/>
      <point x="165" y="-9"/>
      <point x="229" y="98"/>
      <point x="304" y="412" type="curve" smooth="yes"/>
      <point x="356" y="631" type="line"/>
      <point x="325" y="601" type="line"/>
      <point x="669" y="601" type="line"/>
      <point x="648" y="630" type="line"/>
      <point x="522" y="0" type="line"/>
      <point x="635" y="0" type="line"/>
      <point x="775" y="700" type="line"/>
      <point x="271" y="700" type="line"/>
      <point x="201" y="408" type="line" smooth="yes"/>
      <point x="146" y="180"/>
      <point x="99" y="98"/>
      <point x="16" y="98" type="curve" smooth="yes"/>
      <point x="7" y="98"/>
      <point x="-2" y="99"/>
      <point x="-12" y="102" type="curve"/>
      <point x="-40" y="0" type="line"/>
      <point x="-14" y="-6"/>
      <point x="5" y="-9"/>
    </contour>
    <contour>
      <point x="604" y="-151" type="line"/>
      <point x="710" y="-151" type="line"/>
      <point x="759" y="99" type="line"/>
      <point x="543" y="99" type="line"/>
      <point x="522" y="0" type="line"/>
      <point x="662" y="0" type="line"/>
      <point x="639" y="29" type="line"/>
    </contour>
  </outline>
</glyph>
<glyph name="dagger" format="2">
  <advance width="567"/>
  <unicode hex="2020"/>
  <outline>
    <contour>
      <point x="135" y="-194" type="line"/>
      <point x="245" y="-194" type="line"/>
      <point x="358" y="370" type="line"/>
      <point x="558" y="370" type="line"/>
      <point x="576" y="466" type="line"/>
      <point x="376" y="466" type="line"/>
      <point x="423" y="700" type="line"/>
      <point x="313" y="700" type="line"/>
      <point x="266" y="466" type="line"/>
      <point x="69" y="466" type="line"/>
      <point x="51" y="370" type="line"/>
      <point x="248" y="370" type="line"/>
    </contour>
  </outline>
</glyph>
<glyph name="naira" format="2">
  <advance width="885"/>
  <unicode hex="20A6"/>
  <outline>
    <contour>
      <point x="84" y="0" type="line"/>
      <point x="198" y="0" type="line"/>
      <point x="309" y="555" type="line"/>
      <point x="274" y="560" type="line"/>
      <point x="601" y="0" type="line"/>
      <point x="695" y="0" type="line"/>
      <point x="835" y="700" type="line"/>
      <point x="721" y="700" type="line"/>
      <point x="610" y="145" type="line"/>
      <point x="645" y="140" type="line"/>
      <point x="318" y="700" type="line"/>
      <point x="224" y="700" type="line"/>
    </contour>
    <contour>
      <point x="27" y="249" type="line"/>
      <point x="851" y="249" type="line"/>
      <point x="864" y="313" type="line"/>
      <point x="40" y="313" type="line"/>
    </contour>
    <contour>
      <point x="55" y="387" type="line"/>
      <point x="879" y="387" type="line"/>
      <point x="892" y="451" type="line"/>
      <point x="68" y="451" type="line"/>
    </contour>
  </outline>
</glyph>
<glyph name="bitcoin" format="2">
  <advance width="811"/>
  <unicode hex="20BF"/>
  <anchor x="349" y="0" name="bottom"/>
  <anchor x="489" y="700" name="top"/>
  <outline>
    <contour>
      <point x="238" y="47" type="line"/>
      <point x="205" y="-120" type="line"/>
      <point x="278" y="-120" type="line"/>
      <point x="311" y="47" type="line"/>
    </contour>
    <contour>
      <point x="395" y="47" type="line"/>
      <point x="362" y="-120" type="line"/>
      <point x="435" y="-120" type="line"/>
      <point x="468" y="47" type="line"/>
    </contour>
    <contour>
      <point x="432" y="652" type="line"/>
      <point x="466" y="820" type="line"/>
      <point x="393" y="820" type="line"/>
      <point x="359" y="652" type="line"/>
    </contour>
    <contour>
      <point x="589" y="652" type="line"/>
      <point x="623" y="820" type="line"/>
      <point x="550" y="820" type="line"/>
      <point x="516" y="652" type="line"/>
    </contour>
    <contour>
      <point x="72" y="0" type="line"/>
      <point x="415" y="0" type="line" smooth="yes"/>
      <point x="598" y="0"/>
      <point x="722" y="73"/>
      <point x="722" y="220" type="curve" smooth="yes"/>
      <point x="722" y="320"/>
      <point x="653" y="374"/>
      <point x="553" y="374" type="curve"/>
      <point x="529" y="342" type="line"/>
      <point x="641" y="342"/>
      <point x="752" y="412"/>
      <point x="752" y="544" type="curve" smooth="yes"/>
      <point x="752" y="646"/>
      <point x="670" y="700"/>
      <point x="528" y="700" type="curve" smooth="yes"/>
      <point x="212" y="700" type="line"/>
    </contour>
    <contour>
      <point x="205" y="93" type="line"/>
      <point x="307" y="607" type="line"/>
      <point x="503" y="607" type="line" smooth="yes"/>
      <point x="585" y="607"/>
      <point x="633" y="582"/>
      <point x="633" y="525" type="curve" smooth="yes"/>
      <point x="633" y="442"/>
      <point x="564" y="401"/>
      <point x="460" y="401" type="curve" smooth="yes"/>
      <point x="247" y="401" type="line"/>
      <point x="229" y="308" type="line"/>
      <point x="472" y="308" type="line" smooth="yes"/>
      <point x="559" y="308"/>
      <point x="608" y="285"/>
      <point x="608" y="219" type="curve" smooth="yes"/>
      <point x="608" y="136"/>
      <point x="540" y="93"/>
      <point x="423" y="93" type="curve" smooth="yes"/>
    </contour>
  </outline>
</glyph>
<glyph name="trademark" format="2">
  <advance width="1033"/>
  <unicode hex="2122"/>
  <outline>
    <contour>
      <point x="446" y="285" type="line"/>
      <point x="524" y="285" type="line"/>
      <point x="584" y="587" type="line"/>
      <point x="566" y="590" type="line"/>
      <point x="685" y="332" type="line"/>
      <point x="723" y="332" type="line"/>
      <point x="938" y="587" type="line"/>
      <point x="918" y="587" type="line"/>
      <point x="858" y="285" type="line"/>
      <point x="937" y="285" type="line"/>
      <point x="1019" y="700" type="line"/>
      <point x="950" y="700" type="line"/>
      <point x="697" y="398" type="line"/>
      <point x="732" y="398" type="line"/>
      <point x="594" y="700" type="line"/>
      <point x="529" y="700" type="line"/>
    </contour>
    <contour>
      <point x="157" y="285" type="line"/>
      <point x="238" y="285" type="line"/>
      <point x="308" y="635" type="line"/>
      <point x="457" y="635" type="line"/>
      <point x="470" y="700" type="line"/>
      <point x="91" y="700" type="line"/>
      <point x="78" y="635" type="line"/>
      <point x="227" y="635" type="line"/>
    </contour>
  </outline>
</glyph>
<glyph name="radical" format="2">
  <advance width="807"/>
  <unicode hex="221A"/>
  <outline>
    <contour>
      <point x="797" y="742" type="line"/>
      <point x="349" y="-86" type="line"/>
      <point x="373" y="-86" type="line"/>
      <point x="299" y="396" type="line"/>
      <point x="92" y="396" type="line"/>
      <point x="74" y="306" type="line"/>
      <point x="205" y="306" type="line"/>
      <point x="286" y="-194" type="line"/>
      <point x="400" y="-194" type="line"/>
      <point x="905" y="742" type="line"/>
    </contour>
  </outline>
</glyph>
<glyph name="greaterequal" format="2">
  <advance width="586"/>
  <unicode hex="2265"/>
  <outline>
    <contour>
      <point x="50" y="181" type="line"/>
      <point x="537" y="351" type="line"/>
      <point x="556" y="446" type="line"/>
      <point x="137" y="616" type="line"/>
      <point x="119" y="528" type="line"/>
      <point x="507" y="372" type="line"/>
      <point x="519" y="434" type="line"/>
      <point x="69" y="278" type="line"/>
    </contour>
    <contour>
      <point x="13" y="0" type="line"/>
      <point x="467" y="0" type="line"/>
      <point x="485" y="92" type="line"/>
      <point x="31" y="92" type="line"/>
    </contour>
  </outline>
</glyph>
<glyph name="upWhiteTriangle" format="2">
  <advance width="600"/>
  <unicode hex="25B3"/>
  <outline>
    <contour>
      <point x="87" y="52" type="line"/>
      <point x="513" y="52" type="line"/>
      <point x="300" y="478" type="line"/>
    </contour>
    <contour>
      <point x="167" y="105" type="line"/>
      <point x="300" y="360" type="line"/>
      <point x="433" y="105" type="line"/>
    </contour>
  </outline>
</glyph>
<glyph name="De-cy.ss01" format="2">
  <advance width="839"/>
  <outline>
    <contour>
      <point x="-55" y="-151" type="line"/>
      <point x="51" y="-151" type="line"/>
      <point x="82" y="0" type="line"/>
      <point x="653" y="0" type="line"/>
      <point x="623" y="-151" type="line"/>
      <point x="729" y="-151" type="line"/>
      <point x="779" y="99" type="line"/>
      <point x="-4" y="99" type="line"/>
    </contour>
    <contour>
      <point x="62" y="0" type="line"/>
      <point x="174" y="0" type="line"/>
      <point x="254" y="400" type="line" smooth="yes"/>
      <point x="283" y="546"/>
      <point x="358" y="607"/>
      <point x="481" y="607" type="curve" smooth="yes"/>
      <point x="607" y="607"/>
      <point x="665" y="535"/>
      <point x="637" y="394" type="curve" smooth="yes"/>
      <point x="559" y="0" type="line"/>
      <point x="673" y="0" type="line"/>
      <point x="750" y="387" type="line" smooth="yes"/>
      <point x="790" y="589"/>
      <point x="685" y="709"/>
      <point x="492" y="709" type="curve" smooth="yes"/>
      <point x="303" y="709"/>
      <point x="183" y="610"/>
      <point x="142" y="402" type="curve" smooth="yes"/>
    </contour>
  </outline>
</glyph>
<glyph name="Er-cy.ss01" format="2">
  <advance width="723"/>
  <outline>
    <contour>
      <point x="36" y="0" type="line"/>
      <point x="148" y="0" type="line"/>
      <point x="236" y="438" type="line" smooth="yes"/>
      <point x="258" y="546"/>
      <point x="330" y="602"/>
      <point x="444" y="602" type="curve" smooth="yes"/>
      <point x="548" y="602"/>
      <point x="603" y="555"/>
      <point x="603" y="465" type="curve" smooth="yes"/>
      <point x="603" y="349"/>
      <point x="512" y="270"/>
      <point x="380" y="270" type="curve" smooth="yes"/>
      <point x="304" y="270"/>
      <point x="239" y="296"/>
      <point x="202" y="341" type="curve"/>
      <point x="171" y="242" type="line"/>
      <point x="228" y="201"/>
      <point x="299" y="180"/>
      <point x="383" y="180" type="curve" smooth="yes"/>
      <point x="585" y="180"/>
      <point x="720" y="297"/>
      <point x="720" y="474" type="curve" smooth="yes"/>
      <point x="720" y="622"/>
      <point x="624" y="706"/>
      <point x="453" y="706" type="curve" smooth="yes"/>
      <point x="272" y="706"/>
      <point x="158" y="613"/>
      <point x="123" y="436" type="curve" smooth="yes"/>
    </contour>
  </outline>
</glyph>
<glyph name=".notdef" format="2">
  <advance width="587"/>
  <outline>
    <contour>
      <point x="-13" y="0" type="line"/>
      <point x="494" y="0" type="line"/>
      <point x="634" y="700" type="line"/>
      <point x="127" y="700" type="line"/>
    </contour>
    <contour>
      <point x="81" y="70" type="line"/>
      <point x="193" y="630" type="line"/>
      <point x="540" y="630" type="line"/>
      <point x="428" y="70" type="line"/>
    </contour>
  </outline>
</glyph>
<glyph name="aogonek.loclNAV.sc.ss01" format="2">
  <advance width="688"/>
  <anchor x="404" y="570" name="top"/>
  <anchor x="134" y="570" name="topleft"/>
  <outline>
    <contour>
      <point x="34" y="0" type="line"/>
      <point x="145" y="0" type="line"/>
      <point x="209" y="323" type="line" smooth="yes"/>
      <point x="231" y="432"/>
      <point x="290" y="483"/>
      <point x="382" y="483" type="curve" smooth="yes"/>
      <point x="478" y="483"/>
      <point x="523" y="427"/>
      <point x="501" y="319" type="curve" smooth="yes"/>
      <point x="437" y="0" type="line"/>
      <point x="548" y="0" type="line"/>
      <point x="610" y="311" type="line" smooth="yes"/>
      <point x="643" y="479"/>
      <point x="557" y="579"/>
      <point x="393" y="579" type="curve" smooth="yes"/>
      <point x="235" y="579"/>
      <point x="132" y="494"/>
      <point x="99" y="326" type="curve" smooth="yes"/>
    </contour>
    <contour>
      <point x="274" y="-226" type="curve" smooth="yes"/>
      <point x="309" y="-226"/>
      <point x="341" y="-217"/>
      <point x="368" y="-203" type="curve"/>
      <point x="355" y="-147" type="line"/>
      <point x="336" y="-157"/>
      <point x="311" y="-163"/>
      <point x="291" y="-163" type="curve" smooth="yes"/>
      <point x="259" y="-163"/>
      <point x="239" y="-148"/>
      <point x="239" y="-123" type="curve" smooth="yes"/>
      <point x="239" y="-87"/>
      <point x="281" y="-51"/>
      <point x="358" y="-24" type="curve"/>
      <point x="341" y="27" type="line"/>
      <point x="224" y="-10"/>
      <point x="160" y="-70"/>
      <point x="160" y="-136" type="curve" smooth="yes"/>
      <point x="160" y="-193"/>
      <point x="207" y="-226"/>
    </contour>
    <contour>
      <point x="133" y="144" type="line"/>
      <point x="507" y="144" type="line"/>
      <point x="524" y="236" type="line"/>
      <point x="150" y="236" type="line"/>
    </contour>
  </outline>
</glyph>
<glyph name="breveinvertedcomb.narrow" format="2">
  <anchor x="353" y="532" name="_top"/>
  <anchor x="386" y="699" name="top"/>
  <outline>
    <contour>
      <point x="225" y="607" type="curve"/>
      <point x="297" y="607" type="line"/>
      <point x="303" y="659"/>
      <point x="331" y="685"/>
      <point x="379" y="685" type="curve" smooth="yes"/>
      <point x="425" y="685"/>
      <point x="449" y="656"/>
      <point x="443" y="607" type="curve"/>
      <point x="511" y="607" type="line"/>
      <point x="522" y="693"/>
      <point x="467" y="747"/>
      <point x="384" y="747" type="curve" smooth="yes"/>
      <point x="295" y="747"/>
      <point x="238" y="696"/>
    </contour>
  </outline>
</glyph>
<glyph name="dotaccentcomb.i" format="2">
  <anchor x="353" y="532" name="_top"/>
  <anchor x="390" y="720" name="top"/>
  <outline>
    <contour>
      <point x="381" y="627" type="curve" smooth="yes"/>
      <point x="427" y="627"/>
      <point x="458" y="658"/>
      <point x="458" y="703" type="curve" smooth="yes"/>
      <point x="458" y="737"/>
      <point x="430" y="765"/>
      <point x="390" y="765" type="curve" smooth="yes"/>
      <point x="345" y="765"/>
      <point x="314" y="732"/>
      <point x="314" y="691" type="curve" smooth="yes"/>
      <point x="314" y="656"/>
      <point x="341" y="627"/>
    </contour>
  </outline>
</glyph>
<glyph name="eogonek.loclNAV" format="2">
  <advance width="615"/>
  <anchor x="356" y="531" name="top"/>
  <outline>
    <contour>
      <point x="257" y="-226" type="curve" smooth="yes"/>
      <point x="295" y="-226"/>
      <point x="326" y="-217"/>
      <point x="353" y="-203" type="curve"/>
      <point x="340" y="-147" type="line"/>
      <point x="321" y="-157"/>
      <point x="297" y="-163"/>
      <point x="274" y="-163" type="curve" smooth="yes"/>
      <point x="244" y="-163"/>
      <point x="224" y="-148"/>
      <point x="224" y="-120" type="curve" smooth="yes"/>
      <point x="224" y="-77"/>
      <point x="268" y="-24"/>
      <point x="379" y="3" type="curve" smooth="yes"/>
      <point x="428" y="15"/>
      <point x="479" y="38"/>
      <point x="510" y="68" type="curve"/>
      <point x="464" y="148" type="line"/>
      <point x="426" y="110"/>
      <point x="368" y="90"/>
      <point x="304" y="90" type="curve" smooth="yes"/>
      <point x="194" y="90"/>
      <point x="144" y="141"/>
      <point x="144" y="232" type="curve" smooth="yes"/>
      <point x="144" y="361"/>
      <point x="219" y="446"/>
      <point x="334" y="446" type="curve" smooth="yes"/>
      <point x="431" y="446"/>
      <point x="492" y="388"/>
      <point x="476" y="283" type="curve"/>
      <point x="521" y="310" type="line"/>
      <point x="129" y="310" type="line"/>
      <point x="116" y="231" type="line"/>
      <point x="573" y="231" type="line"/>
      <point x="578" y="254"/>
      <point x="581" y="279"/>
      <point x="581" y="305" type="curve" smooth="yes"/>
      <point x="581" y="451"/>
      <point x="484" y="538"/>
      <point x="339" y="538" type="curve" smooth="yes"/>
      <point x="164" y="538"/>
      <point x="36" y="407"/>
      <point x="36" y="226" type="curve" smooth="yes"/>
      <point x="36" y="86"/>
      <point x="135" y="-6"/>
      <point x="294" y="-6" type="curve" smooth="yes"/>
      <point x="314" y="-6"/>
      <point x="331" y="-4"/>
      <point x="349" y="-1" type="curve"/>
      <point x="275" y="20" type="line"/>
      <point x="186" y="-18"/>
      <point x="145" y="-73"/>
      <point x="145" y="-134" type="curve" smooth="yes"/>
      <point x="145" y="-193"/>
      <point x="192" y="-226"/>
    </contour>
  </outline>
</glyph>
<glyph name="eogonek.loclNAV.sc.ss01" format="2">
  <advance width="557"/>
  <anchor x="358" y="570" name="top"/>
  <anchor x="88" y="570" name="topleft"/>
  <outline>
    <contour>
      <point x="237" y="-226" type="curve" smooth="yes"/>
      <point x="273" y="-226"/>
      <point x="304" y="-217"/>
      <point x="331" y="-203" type="curve"/>
      <point x="318" y="-147" type="line"/>
      <point x="299" y="-157"/>
      <point x="274" y="-163"/>
      <point x="254" y="-163" type="curve" smooth="yes"/>
      <point x="222" y="-163"/>
      <point x="202" y="-148"/>
      <point x="202" y="-120" type="curve" smooth="yes"/>
      <point x="202" y="-77"/>
      <point x="261" y="-21"/>
      <point x="348" y="-2" type="curve" smooth="yes"/>
      <point x="412" y="12"/>
      <point x="453" y="25"/>
      <point x="495" y="53" type="curve"/>
      <point x="467" y="138" type="line"/>
      <point x="416" y="104"/>
      <point x="345" y="83"/>
      <point x="267" y="83" type="curve" smooth="yes"/>
      <point x="176" y="83"/>
      <point x="130" y="111"/>
      <point x="130" y="160" type="curve" smooth="yes"/>
      <point x="130" y="210"/>
      <point x="179" y="243"/>
      <point x="259" y="243" type="curve" smooth="yes"/>
      <point x="426" y="243" type="line"/>
      <point x="444" y="333" type="line"/>
      <point x="291" y="333" type="line" smooth="yes"/>
      <point x="234" y="333"/>
      <point x="203" y="357"/>
      <point x="203" y="396" type="curve" smooth="yes"/>
      <point x="203" y="450"/>
      <point x="259" y="487"/>
      <point x="358" y="487" type="curve" smooth="yes"/>
      <point x="410" y="487"/>
      <point x="469" y="477"/>
      <point x="522" y="449" type="curve"/>
      <point x="559" y="535" type="line"/>
      <point x="512" y="563"/>
      <point x="441" y="579"/>
      <point x="365" y="579" type="curve" smooth="yes"/>
      <point x="199" y="579"/>
      <point x="91" y="503"/>
      <point x="91" y="397" type="curve" smooth="yes"/>
      <point x="91" y="324"/>
      <point x="143" y="278"/>
      <point x="207" y="278" type="curve"/>
      <point x="218" y="309" type="line"/>
      <point x="100" y="309"/>
      <point x="18" y="240"/>
      <point x="18" y="143" type="curve" smooth="yes"/>
      <point x="18" y="48"/>
      <point x="96" y="-9"/>
      <point x="271" y="-9" type="curve" smooth="yes"/>
      <point x="282" y="-9"/>
      <point x="295" y="-9"/>
      <point x="316" y="-6" type="curve"/>
      <point x="295" y="39" type="line"/>
      <point x="184" y="-5"/>
      <point x="123" y="-63"/>
      <point x="123" y="-133" type="curve" smooth="yes"/>
      <point x="123" y="-193"/>
      <point x="169" y="-226"/>
    </contour>
  </outline>
</glyph>
<glyph name="eogonek.loclNAV.ss01" format="2">
  <advance width="610"/>
  <anchor x="355" y="531" name="top"/>
  <outline>
    <contour>
      <point x="36" y="226" type="curve" smooth="yes"/>
      <point x="36" y="86"/>
      <point x="135" y="-6"/>
      <point x="294" y="-6" type="curve" smooth="yes"/>
      <point x="314" y="-6"/>
      <point x="331" y="-4"/>
      <point x="349" y="-1" type="curve"/>
      <point x="275" y="20" type="line"/>
      <point x="186" y="-18"/>
      <point x="145" y="-73"/>
      <point x="145" y="-134" type="curve" smooth="yes"/>
      <point x="145" y="-193"/>
      <point x="192" y="-226"/>
      <point x="257" y="-226" type="curve" smooth="yes"/>
      <point x="295" y="-226"/>
      <point x="326" y="-217"/>
      <point x="353" y="-203" type="curve"/>
      <point x="340" y="-147" type="line"/>
      <point x="321" y="-157"/>
      <point x="297" y="-163"/>
      <point x="274" y="-163" type="curve" smooth="yes"/>
      <point x="244" y="-163"/>
      <point x="224" y="-148"/>
      <point x="224" y="-120" type="curve" smooth="yes"/>
      <point x="224" y="-77"/>
      <point x="268" y="-24"/>
      <point x="379" y="3" type="curve" smooth="yes"/>
      <point x="428" y="15"/>
      <point x="479" y="38"/>
      <point x="510" y="68" type="curve"/>
      <point x="464" y="148" type="line"/>
      <point x="426" y="110"/>
      <point x="368" y="90"/>
      <point x="304" y="90" type="curve" smooth="yes"/>
      <point x="194" y="90"/>
      <point x="144" y="141"/>
      <point x="144" y="232" type="curve" smooth="yes"/>
      <point x="144" y="361"/>
      <point x="219" y="446"/>
      <point x="334" y="446" type="curve" smooth="yes"/>
      <point x="431" y="446"/>
      <point x="492" y="388"/>
      <point x="476" y="283" type="curve"/>
      <point x="521" y="341" type="line"/>
      <point x="123" y="268" type="line"/>
      <point x="116" y="187" type="line"/>
      <point x="580" y="272" type="line"/>
      <point x="591" y="448"/>
      <point x="488" y="538"/>
      <point x="338" y="538" type="curve" smooth="yes"/>
      <point x="161" y="538"/>
      <point x="36" y="404"/>
    </contour>
  </outline>
</glyph>
<glyph name="fl.ss01" format="2">
  <advance width="666"/>
  <outline>
    <contour>
      <point x="518" y="-107" type="curve" smooth="yes"/>
      <point x="542" y="-107"/>
      <point x="569" y="-103"/>
      <point x="592" y="-95" type="curve"/>
      <point x="603" y="-4" type="line"/>
      <point x="591" y="-10"/>
      <point x="573" y="-14"/>
      <point x="554" y="-14" type="curve" smooth="yes"/>
      <point x="504" y="-14"/>
      <point x="485" y="16"/>
      <point x="496" y="72" type="curve" smooth="yes"/>
      <point x="585" y="515" type="line" smooth="yes"/>
      <point x="613" y="656"/>
      <point x="550" y="748"/>
      <point x="404" y="748" type="curve" smooth="yes"/>
      <point x="274" y="748"/>
      <point x="184" y="673"/>
      <point x="155" y="530" type="curve" smooth="yes"/>
      <point x="49" y="0" type="line"/>
      <point x="159" y="0" type="line"/>
      <point x="266" y="537" type="line" smooth="yes"/>
      <point x="282" y="619"/>
      <point x="326" y="656"/>
      <point x="396" y="656" type="curve" smooth="yes"/>
      <point x="465" y="656"/>
      <point x="494" y="613"/>
      <point x="476" y="522" type="curve" smooth="yes"/>
      <point x="385" y="68" type="line" smooth="yes"/>
      <point x="363" y="-41"/>
      <point x="418" y="-107"/>
    </contour>
    <contour>
      <point x="48" y="442" type="line"/>
      <point x="394" y="442" type="line"/>
      <point x="412" y="532" type="line"/>
      <point x="66" y="532" type="line"/>
    </contour>
  </outline>
</glyph>
<glyph name="four.dnom" format="2">
  <advance width="430"/>
  <outline>
    <contour>
      <point x="-15" y="95" type="line"/>
      <point x="372" y="95" type="line"/>
      <point x="385" y="160" type="line"/>
      <point x="47" y="160" type="line"/>
      <point x="86" y="148" type="line"/>
      <point x="336" y="415" type="line"/>
      <point x="244" y="415" type="line"/>
      <point x="-4" y="148" type="line"/>
    </contour>
    <contour>
      <point x="195" y="0" type="line"/>
      <point x="273" y="0" type="line"/>
      <point x="321" y="240" type="line"/>
      <point x="250" y="240" type="line"/>
      <point x="234" y="159" type="line"/>
      <point x="215" y="95" type="line"/>
    </contour>
  </outline>
</glyph>
<glyph name="germandbls.sc" format="2">
  <advance width="656"/>
  <outline>
    <contour>
      <point x="369" y="-9" type="curve" smooth="yes"/>
      <point x="509" y="-9"/>
      <point x="598" y="72"/>
      <point x="598" y="187" type="curve" smooth="yes"/>
      <point x="598" y="279"/>
      <point x="526" y="337"/>
      <point x="423" y="337" type="curve" smooth="yes"/>
      <point x="406" y="337"/>
      <point x="384" y="335"/>
      <point x="364" y="330" type="curve"/>
      <point x="411" y="272" type="line"/>
      <point x="597" y="450" type="line"/>
      <point x="610" y="520" type="line"/>
      <point x="564" y="557"/>
      <point x="487" y="577"/>
      <point x="412" y="577" type="curve" smooth="yes"/>
      <point x="236" y="577"/>
      <point x="133" y="496"/>
      <point x="101" y="335" type="curve" smooth="yes"/>
      <point x="34" y="0" type="line"/>
      <point x="146" y="0" type="line"/>
      <point x="212" y="328" type="line" smooth="yes"/>
      <point x="233" y="433"/>
      <point x="297" y="483"/>
      <point x="403" y="483" type="curve" smooth="yes"/>
      <point x="462" y="483"/>
      <point x="510" y="469"/>
      <point x="545" y="438" type="curve"/>
      <point x="538" y="513" type="line"/>
      <point x="317" y="300" type="line"/>
      <point x="327" y="249" type="line"/>
      <point x="346" y="255"/>
      <point x="371" y="259"/>
      <point x="392" y="259" type="curve" smooth="yes"/>
      <point x="452" y="259"/>
      <point x="486" y="232"/>
      <point x="486" y="185" type="curve" smooth="yes"/>
      <point x="486" y="123"/>
      <point x="441" y="85"/>
      <point x="368" y="85" type="curve" smooth="yes"/>
      <point x="327" y="85"/>
      <point x="294" y="93"/>
      <point x="269" y="104" type="curve"/>
      <point x="240" y="14" type="line"/>
      <point x="272" y="0"/>
      <point x="319" y="-9"/>
    </contour>
  </outline>
</glyph>
<glyph name="j.sc" format="2">
  <advance width="456"/>
  <anchor x="270" y="570" name="top"/>
  <outline>
    <contour>
      <point x="134" y="-9" type="curve" smooth="yes"/>
      <point x="251" y="-9"/>
      <point x="324" y="44"/>
      <point x="353" y="188" type="curve" smooth="yes"/>
      <point x="429" y="570" type="line"/>
      <point x="113" y="570" type="line"/>
      <point x="95" y="478" type="line"/>
      <point x="300" y="478" type="line"/>
      <point x="241" y="184" type="line" smooth="yes"/>
      <point x="227" y="115"/>
      <point x="191" y="86"/>
      <point x="135" y="86" type="curve" smooth="yes"/>
      <point x="88" y="86"/>
      <point x="52" y="108"/>
      <point x="29" y="148" type="curve"/>
      <point x="-45" y="77" type="line"/>
      <point x="-14" y="22"/>
      <point x="50" y="-9"/>
    </contour>
  </outline>
</glyph>
<glyph name="l.sc" format="2">
  <advance width="511"/>
  <anchor x="254" y="0" name="bottom"/>
  <anchor x="157" y="312" name="center"/>
  <anchor x="416" y="331" name="dot"/>
  <anchor x="209" y="570" name="top"/>
  <anchor x="434" y="570" name="topright"/>
  <outline>
    <contour>
      <point x="39" y="0" type="line"/>
      <point x="449" y="0" type="line"/>
      <point x="467" y="92" type="line"/>
      <point x="168" y="92" type="line"/>
      <point x="264" y="570" type="line"/>
      <point x="153" y="570" type="line"/>
    </contour>
  </outline>
</glyph>
<glyph name="m.sc.ss01" format="2">
  <advance width="1048"/>
  <anchor x="473" y="0" name="bottom"/>
  <anchor x="594" y="570" name="top"/>
  <outline>
    <contour>
      <point x="39" y="0" type="line"/>
      <point x="150" y="0" type="line"/>
      <point x="223" y="346" type="line" smooth="yes"/>
      <point x="244" y="443"/>
      <point x="314" y="483"/>
      <point x="389" y="483" type="curve" smooth="yes"/>
      <point x="469" y="483"/>
      <point x="509" y="440"/>
      <point x="489" y="349" type="curve" smooth="yes"/>
      <point x="415" y="0" type="line"/>
      <point x="525" y="0" type="line"/>
      <point x="597" y="337" type="line" smooth="yes"/>
      <point x="619" y="440"/>
      <point x="682" y="483"/>
      <point x="761" y="483" type="curve" smooth="yes"/>
      <point x="842" y="483"/>
      <point x="886" y="440"/>
      <point x="866" y="349" type="curve" smooth="yes"/>
      <point x="792" y="0" type="line"/>
      <point x="903" y="0" type="line"/>
      <point x="976" y="343" type="line" smooth="yes"/>
      <point x="1010" y="501"/>
      <point x="923" y="579"/>
      <point x="794" y="579" type="curve" smooth="yes"/>
      <point x="699" y="579"/>
      <point x="614" y="536"/>
      <point x="561" y="444" type="curve"/>
      <point x="608" y="438" type="line"/>
      <point x="605" y="531"/>
      <point x="528" y="579"/>
      <point x="432" y="579" type="curve" smooth="yes"/>
      <point x="342" y="579"/>
      <point x="264" y="541"/>
      <point x="221" y="466" type="curve"/>
      <point x="238" y="440" type="line"/>
      <point x="266" y="570" type="line"/>
      <point x="160" y="570" type="line"/>
    </contour>
  </outline>
</glyph>
<glyph name="nje-cy.ss01" format="2">
  <advance width="954"/>
  <outline>
    <contour>
      <point x="36" y="0" type="line"/>
      <point x="146" y="0" type="line"/>
      <point x="193" y="235" type="line"/>
      <point x="503" y="235" type="line"/>
      <point x="522" y="330" type="line"/>
      <point x="212" y="330" type="line"/>
      <point x="252" y="532" type="line"/>
      <point x="142" y="532" type="line"/>
    </contour>
    <contour>
      <point x="651" y="72" type="curve" smooth="yes"/>
      <point x="570" y="72"/>
      <point x="537" y="111"/>
      <point x="551" y="181" type="curve" smooth="yes"/>
      <point x="563" y="241" type="line"/>
      <point x="697" y="241" type="line" smooth="yes"/>
      <point x="732" y="241"/>
      <point x="796" y="241"/>
      <point x="796" y="177" type="curve" smooth="yes"/>
      <point x="796" y="116"/>
      <point x="738" y="72"/>
    </contour>
    <contour>
      <point x="641" y="-9" type="curve" smooth="yes"/>
      <point x="806" y="-9"/>
      <point x="911" y="74"/>
      <point x="911" y="188" type="curve" smooth="yes"/>
      <point x="911" y="282"/>
      <point x="845" y="330"/>
      <point x="728" y="330" type="curve" smooth="yes"/>
      <point x="581" y="330" type="line"/>
      <point x="621" y="532" type="line"/>
      <point x="512" y="532" type="line"/>
      <point x="442" y="184" type="line" smooth="yes"/>
      <point x="417" y="58"/>
      <point x="492" y="-9"/>
    </contour>
  </outline>
</glyph>
<glyph name="numero.ss01" format="2">
  <advance width="1201"/>
  <outline>
    <contour>
      <point x="804" y="233" type="line"/>
      <point x="1125" y="233" type="line"/>
      <point x="1140" y="306" type="line"/>
      <point x="819" y="306" type="line"/>
    </contour>
    <contour>
      <point x="1006" y="381" type="curve" smooth="yes"/>
      <point x="1122" y="381"/>
      <point x="1208" y="457"/>
      <point x="1208" y="564" type="curve" smooth="yes"/>
      <point x="1208" y="648"/>
      <point x="1143" y="706"/>
      <point x="1047" y="706" type="curve" smooth="yes"/>
      <point x="931" y="706"/>
      <point x="844" y="630"/>
      <point x="844" y="524" type="curve" smooth="yes"/>
      <point x="844" y="440"/>
      <point x="909" y="381"/>
    </contour>
    <contour>
      <point x="1012" y="446" type="curve" smooth="yes"/>
      <point x="957" y="446"/>
      <point x="921" y="478"/>
      <point x="921" y="527" type="curve" smooth="yes"/>
      <point x="921" y="591"/>
      <point x="968" y="641"/>
      <point x="1041" y="641" type="curve" smooth="yes"/>
      <point x="1094" y="641"/>
      <point x="1131" y="610"/>
      <point x="1131" y="560" type="curve" smooth="yes"/>
      <point x="1131" y="494"/>
      <point x="1082" y="446"/>
    </contour>
    <contour>
      <point x="503" y="709" type="curve" smooth="yes"/>
      <point x="392" y="709"/>
      <point x="306" y="663"/>
      <point x="250" y="581" type="curve"/>
      <point x="263" y="530" type="line"/>
      <point x="297" y="700" type="line"/>
      <point x="187" y="700" type="line"/>
      <point x="47" y="0" type="line"/>
      <point x="161" y="0" type="line"/>
      <point x="242" y="405" type="line" smooth="yes"/>
      <point x="270" y="545"/>
      <point x="360" y="607"/>
      <point x="471" y="607" type="curve" smooth="yes"/>
      <point x="591" y="607"/>
      <point x="645" y="538"/>
      <point x="617" y="400" type="curve" smooth="yes"/>
      <point x="537" y="0" type="line"/>
      <point x="651" y="0" type="line"/>
      <point x="730" y="396" type="line" smooth="yes"/>
      <point x="770" y="595"/>
      <point x="671" y="709"/>
    </contour>
  </outline>
</glyph>
<glyph name="one.tosf" format="2">
  <advance width="700"/>
  <outline>
    <contour>
      <point x="265" y="0" type="line"/>
      <point x="379" y="0" type="line"/>
      <point x="499" y="600" type="line"/>
      <point x="222" y="600" type="line"/>
      <point x="202" y="501" type="line"/>
      <point x="416" y="501" type="line"/>
      <point x="376" y="553" type="line"/>
    </contour>
    <contour>
      <point x="106" y="96" type="line"/>
      <point x="87" y="0" type="line"/>
      <point x="539" y="0" type="line"/>
      <point x="558" y="96" type="line"/>
    </contour>
  </outline>
</glyph>
<glyph name="prime" format="2">
  <advance width="301"/>
  <outline>
    <contour>
      <point x="141" y="457" type="line"/>
      <point x="204" y="457" type="line"/>
      <point x="285" y="700" type="line"/>
      <point x="206" y="700" type="line"/>
    </contour>
  </outline>
</glyph>
<glyph name="r.sc" format="2">
  <advance width="633"/>
  <anchor x="270" y="0" name="bottom"/>
  <anchor x="383" y="570" name="top"/>
  <outline>
    <contour>
      <point x="39" y="0" type="line"/>
      <point x="150" y="0" type="line"/>
      <point x="193" y="215" type="line"/>
      <point x="133" y="165" type="line"/>
      <point x="321" y="165" type="line" smooth="yes"/>
      <point x="492" y="165"/>
      <point x="599" y="252"/>
      <point x="599" y="397" type="curve" smooth="yes"/>
      <point x="599" y="506"/>
      <point x="519" y="570"/>
      <point x="380" y="570" type="curve" smooth="yes"/>
      <point x="153" y="570" type="line"/>
    </contour>
    <contour>
      <point x="419" y="0" type="line"/>
      <point x="536" y="0" type="line"/>
      <point x="416" y="207" type="line"/>
      <point x="300" y="207" type="line"/>
    </contour>
    <contour>
      <point x="190" y="202" type="line"/>
      <point x="256" y="531" type="line"/>
      <point x="199" y="478" type="line"/>
      <point x="365" y="478" type="line" smooth="yes"/>
      <point x="442" y="478"/>
      <point x="487" y="447"/>
      <point x="487" y="387" type="curve" smooth="yes"/>
      <point x="487" y="302"/>
      <point x="428" y="255"/>
      <point x="326" y="255" type="curve" smooth="yes"/>
      <point x="151" y="255" type="line"/>
    </contour>
  </outline>
</glyph>
<glyph name="schwa.sc.ss01" format="2">
  <advance width="675"/>
  <anchor x="284" y="0" name="bottom"/>
  <anchor x="396" y="570" name="top"/>
  <outline>
    <contour>
      <point x="304" y="-9" type="curve" smooth="yes"/>
      <point x="504" y="-9"/>
      <point x="640" y="141"/>
      <point x="640" y="333" type="curve" smooth="yes"/>
      <point x="640" y="479"/>
      <point x="540" y="579"/>
      <point x="369" y="579" type="curve" smooth="yes"/>
      <point x="274" y="579"/>
      <point x="193" y="552"/>
      <point x="132" y="500" type="curve"/>
      <point x="185" y="420" type="line"/>
      <point x="231" y="460"/>
      <point x="298" y="483"/>
      <point x="363" y="483" type="curve" smooth="yes"/>
      <point x="468" y="483"/>
      <point x="530" y="421"/>
      <point x="530" y="328" type="curve" smooth="yes"/>
      <point x="530" y="189"/>
      <point x="449" y="84"/>
      <point x="315" y="84" type="curve" smooth="yes"/>
      <point x="208" y="84"/>
      <point x="149" y="146"/>
      <point x="149" y="221" type="curve"/>
      <point x="108" y="133" type="line"/>
      <point x="555" y="301" type="line"/>
      <point x="545" y="389" type="line"/>
      <point x="43" y="200" type="line"/>
      <point x="63" y="67"/>
      <point x="160" y="-9"/>
    </contour>
  </outline>
</glyph>
<glyph name="sha-cy.loclBGR" format="2">
  <advance width="1046"/>
  <anchor x="801" y="0" name="bottomleft"/>
  <anchor x="562" y="532" name="top"/>
  <outline>
    <contour>
      <point x="252" y="-6" type="curve" smooth="yes"/>
      <point x="363" y="-6"/>
      <point x="451" y="43"/>
      <point x="507" y="140" type="curve"/>
      <point x="447" y="152" type="line"/>
      <point x="455" y="50"/>
      <point x="527" y="-6"/>
      <point x="633" y="-6" type="curve" smooth="yes"/>
      <point x="722" y="-6"/>
      <point x="799" y="28"/>
      <point x="848" y="103" type="curve"/>
      <point x="829" y="152" type="line"/>
      <point x="799" y="0" type="line"/>
      <point x="904" y="0" type="line"/>
      <point x="1010" y="532" type="line"/>
      <point x="900" y="532" type="line"/>
      <point x="844" y="253" type="line" smooth="yes"/>
      <point x="822" y="144"/>
      <point x="761" y="92"/>
      <point x="668" y="92" type="curve" smooth="yes"/>
      <point x="578" y="92"/>
      <point x="545" y="145"/>
      <point x="563" y="236" type="curve" smooth="yes"/>
      <point x="622" y="532" type="line"/>
      <point x="512" y="532" type="line"/>
      <point x="456" y="253" type="line" smooth="yes"/>
      <point x="434" y="144"/>
      <point x="373" y="92"/>
      <point x="280" y="92" type="curve" smooth="yes"/>
      <point x="190" y="92"/>
      <point x="157" y="145"/>
      <point x="175" y="236" type="curve" smooth="yes"/>
      <point x="234" y="532" type="line"/>
      <point x="124" y="532" type="line"/>
      <point x="65" y="237" type="line" smooth="yes"/>
      <point x="34" y="81"/>
      <point x="111" y="-6"/>
    </contour>
  </outline>
</glyph>
<glyph name="slashshortcomb.case" format="2">
  <anchor x="241" y="388" name="_center"/>
  <outline>
    <contour>
      <point x="103" y="244" type="line"/>
      <point x="482" y="495" type="line"/>
      <point x="434" y="567" type="line"/>
      <point x="55" y="316" type="line"/>
    </contour>
  </outline>
</glyph>
<glyph name="softsign-cy.ss01" format="2">
  <advance width="591"/>
  <outline>
    <contour>
      <point x="264" y="-9" type="curve" smooth="yes"/>
      <point x="434" y="-9"/>
      <point x="547" y="86"/>
      <point x="547" y="222" type="curve" smooth="yes"/>
      <point x="547" y="327"/>
      <point x="483" y="383"/>
      <point x="360" y="383" type="curve" smooth="yes"/>
      <point x="299" y="383"/>
      <point x="250" y="369"/>
      <point x="198" y="336" type="curve"/>
      <point x="237" y="532" type="line"/>
      <point x="127" y="532" type="line"/>
      <point x="62" y="205" type="line" smooth="yes"/>
      <point x="35" y="68"/>
      <point x="111" y="-9"/>
    </contour>
    <contour>
      <point x="275" y="73" type="curve" smooth="yes"/>
      <point x="194" y="73"/>
      <point x="155" y="119"/>
      <point x="170" y="192" type="curve" smooth="yes"/>
      <point x="179" y="237" type="line"/>
      <point x="214" y="280"/>
      <point x="266" y="304"/>
      <point x="325" y="304" type="curve" smooth="yes"/>
      <point x="395" y="304"/>
      <point x="435" y="270"/>
      <point x="435" y="209" type="curve" smooth="yes"/>
      <point x="435" y="133"/>
      <point x="367" y="73"/>
    </contour>
  </outline>
</glyph>
<glyph name="u.ss01" format="2">
  <advance width="725"/>
  <anchor x="284" y="0" name="bottom"/>
  <anchor x="670" y="6" name="ogonek"/>
  <anchor x="390" y="532" name="top"/>
  <anchor x="590" y="532" name="topright"/>
  <outline>
    <contour>
      <point x="262" y="-6" type="curve" smooth="yes"/>
      <point x="355" y="-6"/>
      <point x="436" y="30"/>
      <point x="487" y="109" type="curve"/>
      <point x="461" y="115" type="line"/>
      <point x="462" y="42"/>
      <point x="512" y="-6"/>
      <point x="596" y="-6" type="curve" smooth="yes"/>
      <point x="622" y="-6"/>
      <point x="648" y="-2"/>
      <point x="670" y="6" type="curve"/>
      <point x="681" y="95" type="line"/>
      <point x="669" y="90"/>
      <point x="652" y="86"/>
      <point x="633" y="86" type="curve" smooth="yes"/>
      <point x="585" y="86"/>
      <point x="561" y="115"/>
      <point x="572" y="168" type="curve" smooth="yes"/>
      <point x="645" y="532" type="line"/>
      <point x="535" y="532" type="line"/>
      <point x="479" y="253" type="line" smooth="yes"/>
      <point x="457" y="144"/>
      <point x="390" y="92"/>
      <point x="295" y="92" type="curve" smooth="yes"/>
      <point x="203" y="92"/>
      <point x="168" y="145"/>
      <point x="186" y="236" type="curve" smooth="yes"/>
      <point x="245" y="532" type="line"/>
      <point x="135" y="532" type="line"/>
      <point x="76" y="237" type="line" smooth="yes"/>
      <point x="45" y="81"/>
      <point x="127" y="-6"/>
    </contour>
  </outline>
</glyph>
<glyph name="udieresis.sc.ss01.alt.BRACKET.133" format="2">
  <advance width="688"/>
  <outline>
    <contour>
      <point x="269" y="-9" type="curve" smooth="yes"/>
      <point x="363" y="-9"/>
      <point x="443" y="33"/>
      <point x="483" y="103" type="curve"/>
      <point x="464" y="135" type="line"/>
      <point x="437" y="0" type="line"/>
      <point x="543" y="0" type="line"/>
      <point x="657" y="570" type="line"/>
      <point x="546" y="570" type="line"/>
      <point x="480" y="241" type="line" smooth="yes"/>
      <point x="458" y="133"/>
      <point x="390" y="88"/>
      <point x="303" y="88" type="curve" smooth="yes"/>
      <point x="214" y="88"/>
      <point x="173" y="138"/>
      <point x="194" y="243" type="curve" smooth="yes"/>
      <point x="259" y="570" type="line"/>
      <point x="148" y="570" type="line"/>
      <point x="84" y="250" type="line" smooth="yes"/>
      <point x="51" y="85"/>
      <point x="134" y="-9"/>
    </contour>
    <contour>
      <point x="360" y="321" type="curve" smooth="yes"/>
      <point x="394" y="321"/>
      <point x="424" y="349"/>
      <point x="424" y="387" type="curve" smooth="yes"/>
      <point x="424" y="419"/>
      <point x="398" y="441"/>
      <point x="368" y="441" type="curve" smooth="yes"/>
      <point x="333" y="441"/>
      <point x="304" y="414"/>
      <point x="304" y="375" type="curve" smooth="yes"/>
      <point x="304" y="344"/>
      <point x="329" y="321"/>
    </contour>
    <contour>
      <point x="388" y="459" type="curve" smooth="yes"/>
      <point x="422" y="459"/>
      <point x="452" y="487"/>
      <point x="452" y="525" type="curve" smooth="yes"/>
      <point x="452" y="557"/>
      <point x="426" y="579"/>
      <point x="396" y="579" type="curve" smooth="yes"/>
      <point x="361" y="579"/>
      <point x="332" y="552"/>
      <point x="332" y="513" type="curve" smooth="yes"/>
      <point x="332" y="482"/>
      <point x="357" y="459"/>
    </contour>
  </outline>
</glyph>
<glyph name="uogonek.loclNAV" format="2">
  <advance width="679"/>
  <anchor x="284" y="0" name="bottom"/>
  <anchor x="539" y="0" name="ogonek"/>
  <anchor x="390" y="532" name="top"/>
  <anchor x="590" y="532" name="topright"/>
  <outline>
    <contour>
      <point x="262" y="-226" type="curve" smooth="yes"/>
      <point x="300" y="-226"/>
      <point x="331" y="-217"/>
      <point x="358" y="-203" type="curve"/>
      <point x="345" y="-147" type="line"/>
      <point x="326" y="-157"/>
      <point x="302" y="-163"/>
      <point x="279" y="-163" type="curve" smooth="yes"/>
      <point x="249" y="-163"/>
      <point x="229" y="-148"/>
      <point x="229" y="-120" type="curve" smooth="yes"/>
      <point x="229" y="-71"/>
      <point x="285" y="-33"/>
      <point x="347" y="-2" type="curve" smooth="yes"/>
      <point x="403" y="26"/>
      <point x="456" y="57"/>
      <point x="483" y="103" type="curve"/>
      <point x="464" y="152" type="line"/>
      <point x="434" y="0" type="line"/>
      <point x="539" y="0" type="line"/>
      <point x="645" y="532" type="line"/>
      <point x="535" y="532" type="line"/>
      <point x="479" y="253" type="line" smooth="yes"/>
      <point x="457" y="144"/>
      <point x="390" y="92"/>
      <point x="295" y="92" type="curve" smooth="yes"/>
      <point x="203" y="92"/>
      <point x="168" y="145"/>
      <point x="186" y="236" type="curve" smooth="yes"/>
      <point x="245" y="532" type="line"/>
      <point x="135" y="532" type="line"/>
      <point x="76" y="237" type="line" smooth="yes"/>
      <point x="45" y="81"/>
      <point x="127" y="-6"/>
      <point x="262" y="-6" type="curve" smooth="yes"/>
      <point x="277" y="-6"/>
      <point x="292" y="-5"/>
      <point x="306" y="-3" type="curve"/>
      <point x="336" y="59" type="line"/>
      <point x="213" y="0"/>
      <point x="150" y="-63"/>
      <point x="150" y="-134" type="curve" smooth="yes"/>
      <point x="150" y="-193"/>
      <point x="197" y="-226"/>
    </contour>
  </outline>
</glyph>
<glyph name="upArrow.case" format="2">
  <advance width="600"/>
  <outline>
    <contour>
      <point x="91" y="318" type="line"/>
      <point x="299" y="451" type="line"/>
      <point x="509" y="318" type="line"/>
      <point x="509" y="411" type="line"/>
      <point x="299" y="553" type="line"/>
      <point x="91" y="411" type="line"/>
    </contour>
    <contour>
      <point x="256" y="100" type="line"/>
      <point x="343" y="100" type="line"/>
      <point x="343" y="468" type="line"/>
      <point x="256" y="468" type="line"/>
    </contour>
  </outline>
</glyph>
<glyph name="z.sc" format="2">
  <advance width="560"/>
  <anchor x="237" y="0" name="bottom"/>
  <anchor x="348" y="570" name="top"/>
  <outline>
    <contour>
      <point x="-15" y="0" type="line"/>
      <point x="481" y="0" type="line"/>
      <point x="499" y="92" type="line"/>
      <point x="105" y="92" type="line"/>
      <point x="116" y="52" type="line"/>
      <point x="572" y="496" type="line"/>
      <point x="587" y="570" type="line"/>
      <point x="108" y="570" type="line"/>
      <point x="89" y="476" type="line"/>
      <point x="466" y="476" type="line"/>
      <point x="455" y="518" type="line"/>
      <point x="0" y="74" type="line"/>
    </contour>
  </outline>
</glyph>
